<mxfile host="app.diagrams.net" modified="2023-04-07T19:01:58.731Z" agent="Mozilla/5.0 (Windows NT 10.0; Win64; x64) AppleWebKit/537.36 (KHTML, like Gecko) Chrome/111.0.0.0 Safari/537.36" etag="wwW2Ca-JIiQ1oZYwk82k" version="21.1.0" type="device">
  <diagram name="Page-1" id="74e2e168-ea6b-b213-b513-2b3c1d86103e">
    <mxGraphModel dx="1034" dy="381" grid="1" gridSize="10" guides="1" tooltips="1" connect="1" arrows="1" fold="1" page="1" pageScale="1" pageWidth="1100" pageHeight="850" background="none" math="0" shadow="0">
      <root>
        <mxCell id="0" />
        <mxCell id="1" parent="0" />
        <mxCell id="77e6c97f196da883-1" value="GPU-Enabled WXS Pipeline" style="swimlane;html=1;childLayout=stackLayout;startSize=20;rounded=0;shadow=0;labelBackgroundColor=none;strokeWidth=1;fontFamily=Verdana;fontSize=8;align=center;fillColor=#f5f5f5;fontColor=#333333;strokeColor=#666666;" parent="1" vertex="1">
          <mxGeometry x="110" y="30" width="370" height="330" as="geometry" />
        </mxCell>
        <mxCell id="77e6c97f196da883-2" value="Inputs" style="swimlane;html=1;startSize=20;" parent="77e6c97f196da883-1" vertex="1">
          <mxGeometry y="20" width="130" height="310" as="geometry" />
        </mxCell>
        <mxCell id="Nnj7Wq_yGs6EVmE-nwQ6-4" value="" style="edgeStyle=orthogonalEdgeStyle;rounded=0;orthogonalLoop=1;jettySize=auto;html=1;dashed=1;dashPattern=1 1;" parent="77e6c97f196da883-2" source="77e6c97f196da883-8" target="Nnj7Wq_yGs6EVmE-nwQ6-1" edge="1">
          <mxGeometry relative="1" as="geometry" />
        </mxCell>
        <mxCell id="77e6c97f196da883-8" value="Raw CRAMs&lt;br&gt;Sample Map&lt;br&gt;Original FASTA" style="rounded=1;whiteSpace=wrap;html=1;shadow=0;labelBackgroundColor=none;strokeWidth=1;fontFamily=Verdana;fontSize=12;align=center;dashed=1;fillColor=#f8cecc;strokeColor=#b85450;" parent="77e6c97f196da883-2" vertex="1">
          <mxGeometry x="15" y="30" width="100" height="40" as="geometry" />
        </mxCell>
        <mxCell id="77e6c97f196da883-9" value="Raw FASTQs&lt;br&gt;Sample Map" style="rounded=1;whiteSpace=wrap;html=1;shadow=0;labelBackgroundColor=none;strokeWidth=3;fontFamily=Verdana;fontSize=12;align=center;fillColor=#f8cecc;strokeColor=#b85450;" parent="77e6c97f196da883-2" vertex="1">
          <mxGeometry x="15" y="140" width="100" height="30" as="geometry" />
        </mxCell>
        <mxCell id="Nnj7Wq_yGs6EVmE-nwQ6-3" value="" style="edgeStyle=orthogonalEdgeStyle;rounded=0;orthogonalLoop=1;jettySize=auto;html=1;dashed=1;dashPattern=1 1;" parent="77e6c97f196da883-2" source="Nnj7Wq_yGs6EVmE-nwQ6-1" target="77e6c97f196da883-9" edge="1">
          <mxGeometry relative="1" as="geometry" />
        </mxCell>
        <mxCell id="Nnj7Wq_yGs6EVmE-nwQ6-1" value="Stageincram.bash" style="rhombus;whiteSpace=wrap;html=1;rounded=0;shadow=0;labelBackgroundColor=none;strokeWidth=1;fontFamily=Verdana;fontSize=12;align=center;dashed=1;fillColor=#ffe6cc;strokeColor=#d79b00;" parent="77e6c97f196da883-2" vertex="1">
          <mxGeometry x="25" y="90" width="80" height="30" as="geometry" />
        </mxCell>
        <mxCell id="Nnj7Wq_yGs6EVmE-nwQ6-7" value="in-fq-lists" style="rounded=1;whiteSpace=wrap;html=1;shadow=0;labelBackgroundColor=none;strokeWidth=1;fontFamily=Verdana;fontSize=12;align=center;fillColor=#ffe6cc;strokeColor=#d79b00;" parent="77e6c97f196da883-2" vertex="1">
          <mxGeometry x="15" y="210" width="100" height="30" as="geometry" />
        </mxCell>
        <mxCell id="Nnj7Wq_yGs6EVmE-nwQ6-11" value="" style="endArrow=classic;html=1;rounded=0;exitX=0.5;exitY=1;exitDx=0;exitDy=0;entryX=0.5;entryY=0;entryDx=0;entryDy=0;" parent="77e6c97f196da883-2" source="77e6c97f196da883-9" target="Nnj7Wq_yGs6EVmE-nwQ6-7" edge="1">
          <mxGeometry width="50" height="50" relative="1" as="geometry">
            <mxPoint x="305" y="240" as="sourcePoint" />
            <mxPoint x="355" y="190" as="targetPoint" />
            <Array as="points" />
          </mxGeometry>
        </mxCell>
        <mxCell id="Nnj7Wq_yGs6EVmE-nwQ6-55" value="Reference FASTA" style="shape=hexagon;perimeter=hexagonPerimeter2;whiteSpace=wrap;html=1;fixedSize=1;fillColor=#d5e8d4;strokeColor=#82b366;" parent="77e6c97f196da883-2" vertex="1">
          <mxGeometry x="5" y="260" width="120" height="40" as="geometry" />
        </mxCell>
        <mxCell id="Nnj7Wq_yGs6EVmE-nwQ6-24" value="" style="edgeStyle=orthogonalEdgeStyle;rounded=0;orthogonalLoop=1;jettySize=auto;html=1;fillColor=#f5f5f5;strokeColor=#999999;" parent="77e6c97f196da883-1" edge="1">
          <mxGeometry relative="1" as="geometry">
            <mxPoint x="475" y="250" as="sourcePoint" />
          </mxGeometry>
        </mxCell>
        <mxCell id="77e6c97f196da883-3" value="Aligning" style="swimlane;html=1;startSize=20;" parent="77e6c97f196da883-1" vertex="1">
          <mxGeometry x="130" y="20" width="110" height="310" as="geometry" />
        </mxCell>
        <mxCell id="Nnj7Wq_yGs6EVmE-nwQ6-5" value="pbrun fq2bam" style="rhombus;whiteSpace=wrap;html=1;rounded=0;shadow=0;labelBackgroundColor=none;strokeWidth=3;fontFamily=Verdana;fontSize=12;align=center;fillColor=#e1d5e7;strokeColor=#9673a6;" parent="77e6c97f196da883-3" vertex="1">
          <mxGeometry x="15" y="170" width="80" height="45" as="geometry" />
        </mxCell>
        <mxCell id="TSq1mU4a56lTS22iXald-4" value="bwa-mem2" style="rhombus;whiteSpace=wrap;html=1;rounded=0;shadow=0;labelBackgroundColor=none;strokeWidth=3;fontFamily=Verdana;fontSize=8;align=center;fillColor=#ffe6cc;strokeColor=#d79b00;" parent="77e6c97f196da883-3" vertex="1">
          <mxGeometry x="15" y="42" width="80" height="48" as="geometry" />
        </mxCell>
        <mxCell id="xKvOOhsYieL9IacCuS3Y-2" value="bwa-mem2" style="rhombus;whiteSpace=wrap;html=1;rounded=0;shadow=0;labelBackgroundColor=none;strokeWidth=3;fontFamily=Verdana;fontSize=12;align=center;fillColor=#ffe6cc;strokeColor=#d79b00;" parent="77e6c97f196da883-3" vertex="1">
          <mxGeometry x="15" y="30" width="80" height="48" as="geometry" />
        </mxCell>
        <mxCell id="xKvOOhsYieL9IacCuS3Y-3" value="bwa-mem2" style="rhombus;whiteSpace=wrap;html=1;rounded=0;shadow=0;labelBackgroundColor=none;strokeWidth=3;fontFamily=Verdana;fontSize=12;align=center;fillColor=#ffe6cc;strokeColor=#d79b00;" parent="77e6c97f196da883-3" vertex="1">
          <mxGeometry x="15" y="50" width="80" height="48" as="geometry" />
        </mxCell>
        <mxCell id="xKvOOhsYieL9IacCuS3Y-5" value="MarkDuplicates" style="rhombus;whiteSpace=wrap;html=1;rounded=0;shadow=0;labelBackgroundColor=none;strokeWidth=1;fontFamily=Verdana;fontSize=12;align=center;fillColor=#dae8fc;strokeColor=#6c8ebf;" parent="77e6c97f196da883-3" vertex="1">
          <mxGeometry x="15" y="120" width="80" height="40" as="geometry" />
        </mxCell>
        <mxCell id="xKvOOhsYieL9IacCuS3Y-4" style="edgeStyle=orthogonalEdgeStyle;rounded=0;orthogonalLoop=1;jettySize=auto;html=1;exitX=0.5;exitY=1;exitDx=0;exitDy=0;entryX=0.5;entryY=0;entryDx=0;entryDy=0;" parent="77e6c97f196da883-3" source="xKvOOhsYieL9IacCuS3Y-3" target="xKvOOhsYieL9IacCuS3Y-5" edge="1">
          <mxGeometry relative="1" as="geometry">
            <mxPoint x="55" y="120" as="targetPoint" />
          </mxGeometry>
        </mxCell>
        <mxCell id="77e6c97f196da883-4" value="&quot;GATKready&quot;" style="swimlane;html=1;startSize=20;" parent="77e6c97f196da883-1" vertex="1">
          <mxGeometry x="240" y="20" width="130" height="310" as="geometry" />
        </mxCell>
        <mxCell id="Nnj7Wq_yGs6EVmE-nwQ6-12" value="GATKready.cram" style="rounded=1;whiteSpace=wrap;html=1;shadow=0;labelBackgroundColor=none;strokeWidth=3;fontFamily=Verdana;fontSize=12;align=center;fillColor=#fff2cc;strokeColor=#d6b656;" parent="77e6c97f196da883-4" vertex="1">
          <mxGeometry x="20" y="140" width="100" height="30" as="geometry" />
        </mxCell>
        <mxCell id="Nnj7Wq_yGs6EVmE-nwQ6-13" value="" style="edgeStyle=orthogonalEdgeStyle;rounded=0;orthogonalLoop=1;jettySize=auto;html=1;strokeWidth=3;dashed=1;" parent="77e6c97f196da883-1" source="Nnj7Wq_yGs6EVmE-nwQ6-5" target="Nnj7Wq_yGs6EVmE-nwQ6-12" edge="1">
          <mxGeometry relative="1" as="geometry" />
        </mxCell>
        <mxCell id="Nnj7Wq_yGs6EVmE-nwQ6-26" value="" style="edgeStyle=orthogonalEdgeStyle;rounded=0;orthogonalLoop=1;jettySize=auto;html=1;strokeWidth=3;" parent="77e6c97f196da883-1" edge="1">
          <mxGeometry relative="1" as="geometry">
            <mxPoint x="475" y="360" as="sourcePoint" />
          </mxGeometry>
        </mxCell>
        <mxCell id="Nnj7Wq_yGs6EVmE-nwQ6-32" value="" style="edgeStyle=orthogonalEdgeStyle;rounded=0;orthogonalLoop=1;jettySize=auto;html=1;strokeColor=#999999;" parent="77e6c97f196da883-1" edge="1">
          <mxGeometry relative="1" as="geometry">
            <mxPoint x="475" y="112.5" as="sourcePoint" />
          </mxGeometry>
        </mxCell>
        <mxCell id="Nnj7Wq_yGs6EVmE-nwQ6-37" value="" style="edgeStyle=orthogonalEdgeStyle;rounded=1;orthogonalLoop=1;jettySize=auto;html=1;strokeWidth=3;" parent="77e6c97f196da883-1" edge="1">
          <mxGeometry relative="1" as="geometry">
            <mxPoint x="720" y="425" as="sourcePoint" />
          </mxGeometry>
        </mxCell>
        <mxCell id="Nnj7Wq_yGs6EVmE-nwQ6-8" value="" style="endArrow=classic;html=1;rounded=1;exitX=1;exitY=0.5;exitDx=0;exitDy=0;entryX=0.5;entryY=1;entryDx=0;entryDy=0;" parent="77e6c97f196da883-1" source="Nnj7Wq_yGs6EVmE-nwQ6-7" target="Nnj7Wq_yGs6EVmE-nwQ6-5" edge="1">
          <mxGeometry width="50" height="50" relative="1" as="geometry">
            <mxPoint x="310" y="270" as="sourcePoint" />
            <mxPoint x="360" y="220" as="targetPoint" />
            <Array as="points">
              <mxPoint x="185" y="245" />
            </Array>
          </mxGeometry>
        </mxCell>
        <mxCell id="Nnj7Wq_yGs6EVmE-nwQ6-34" value="" style="edgeStyle=orthogonalEdgeStyle;rounded=1;orthogonalLoop=1;jettySize=auto;html=1;strokeWidth=3;" parent="77e6c97f196da883-1" edge="1">
          <mxGeometry relative="1" as="geometry">
            <Array as="points">
              <mxPoint x="560" y="425" />
            </Array>
            <mxPoint x="560" y="375" as="sourcePoint" />
          </mxGeometry>
        </mxCell>
        <mxCell id="Nnj7Wq_yGs6EVmE-nwQ6-51" value="" style="edgeStyle=orthogonalEdgeStyle;rounded=1;orthogonalLoop=1;jettySize=auto;html=1;strokeWidth=3;dashed=1;" parent="77e6c97f196da883-1" source="77e6c97f196da883-9" target="Nnj7Wq_yGs6EVmE-nwQ6-5" edge="1">
          <mxGeometry relative="1" as="geometry" />
        </mxCell>
        <mxCell id="Nnj7Wq_yGs6EVmE-nwQ6-58" value="" style="endArrow=classic;html=1;rounded=1;exitX=1;exitY=0.5;exitDx=0;exitDy=0;entryX=0.5;entryY=1;entryDx=0;entryDy=0;fillColor=#d5e8d4;strokeColor=#82b366;" parent="77e6c97f196da883-1" source="Nnj7Wq_yGs6EVmE-nwQ6-55" target="Nnj7Wq_yGs6EVmE-nwQ6-5" edge="1">
          <mxGeometry width="50" height="50" relative="1" as="geometry">
            <mxPoint x="290" y="230" as="sourcePoint" />
            <mxPoint x="340" y="180" as="targetPoint" />
            <Array as="points">
              <mxPoint x="185" y="300" />
            </Array>
          </mxGeometry>
        </mxCell>
        <mxCell id="TSq1mU4a56lTS22iXald-2" value="" style="edgeStyle=orthogonalEdgeStyle;rounded=1;orthogonalLoop=1;jettySize=auto;html=1;strokeWidth=3;exitX=1;exitY=0.5;exitDx=0;exitDy=0;entryX=0;entryY=0.5;entryDx=0;entryDy=0;dashed=1;" parent="77e6c97f196da883-1" source="77e6c97f196da883-9" target="TSq1mU4a56lTS22iXald-4" edge="1">
          <mxGeometry relative="1" as="geometry">
            <mxPoint x="115" y="122" as="sourcePoint" />
            <mxPoint x="145" y="122" as="targetPoint" />
          </mxGeometry>
        </mxCell>
        <mxCell id="TSq1mU4a56lTS22iXald-5" value="" style="edgeStyle=orthogonalEdgeStyle;rounded=0;orthogonalLoop=1;jettySize=auto;html=1;strokeWidth=3;exitX=1;exitY=0.5;exitDx=0;exitDy=0;entryX=0;entryY=0.5;entryDx=0;entryDy=0;dashed=1;" parent="77e6c97f196da883-1" source="xKvOOhsYieL9IacCuS3Y-5" target="Nnj7Wq_yGs6EVmE-nwQ6-12" edge="1">
          <mxGeometry relative="1" as="geometry">
            <mxPoint x="280" y="110" as="sourcePoint" />
            <mxPoint x="315" y="110" as="targetPoint" />
            <Array as="points">
              <mxPoint x="225" y="170" />
              <mxPoint x="230" y="170" />
              <mxPoint x="230" y="175" />
            </Array>
          </mxGeometry>
        </mxCell>
        <mxCell id="xKvOOhsYieL9IacCuS3Y-32" value="" style="edgeStyle=orthogonalEdgeStyle;rounded=1;orthogonalLoop=1;jettySize=auto;html=1;entryX=0;entryY=0.25;entryDx=0;entryDy=0;entryPerimeter=0;" parent="77e6c97f196da883-1" edge="1">
          <mxGeometry relative="1" as="geometry">
            <Array as="points">
              <mxPoint x="1010" y="160" />
            </Array>
            <mxPoint x="1020" y="160" as="targetPoint" />
          </mxGeometry>
        </mxCell>
        <mxCell id="xKvOOhsYieL9IacCuS3Y-133" value="" style="edgeStyle=orthogonalEdgeStyle;rounded=1;orthogonalLoop=1;jettySize=auto;html=1;" parent="77e6c97f196da883-1" edge="1">
          <mxGeometry relative="1" as="geometry">
            <mxPoint x="1460.0000000000005" y="100.00000000000011" as="targetPoint" />
          </mxGeometry>
        </mxCell>
        <mxCell id="xKvOOhsYieL9IacCuS3Y-134" value="" style="edgeStyle=orthogonalEdgeStyle;rounded=1;orthogonalLoop=1;jettySize=auto;html=1;" parent="77e6c97f196da883-1" edge="1">
          <mxGeometry relative="1" as="geometry">
            <mxPoint x="1460.0000000000005" y="180" as="targetPoint" />
          </mxGeometry>
        </mxCell>
        <mxCell id="xKvOOhsYieL9IacCuS3Y-135" value="" style="edgeStyle=orthogonalEdgeStyle;rounded=1;orthogonalLoop=1;jettySize=auto;html=1;" parent="77e6c97f196da883-1" edge="1">
          <mxGeometry relative="1" as="geometry">
            <mxPoint x="1460.0000000000005" y="260" as="targetPoint" />
          </mxGeometry>
        </mxCell>
        <mxCell id="xKvOOhsYieL9IacCuS3Y-140" value="" style="edgeStyle=orthogonalEdgeStyle;rounded=1;orthogonalLoop=1;jettySize=auto;html=1;" parent="77e6c97f196da883-1" edge="1">
          <mxGeometry relative="1" as="geometry">
            <mxPoint x="1560.0000000000005" y="100" as="sourcePoint" />
          </mxGeometry>
        </mxCell>
        <mxCell id="xKvOOhsYieL9IacCuS3Y-191" style="edgeStyle=orthogonalEdgeStyle;rounded=1;orthogonalLoop=1;jettySize=auto;html=1;exitX=1;exitY=0.5;exitDx=0;exitDy=0;entryX=0;entryY=0.5;entryDx=0;entryDy=0;" parent="77e6c97f196da883-1" edge="1">
          <mxGeometry relative="1" as="geometry">
            <Array as="points">
              <mxPoint x="1730" y="590" />
              <mxPoint x="1730" y="485" />
            </Array>
            <mxPoint x="1699.9999999999995" y="590" as="sourcePoint" />
          </mxGeometry>
        </mxCell>
        <mxCell id="xKvOOhsYieL9IacCuS3Y-1" style="edgeStyle=orthogonalEdgeStyle;rounded=0;orthogonalLoop=1;jettySize=auto;html=1;exitX=1;exitY=0.5;exitDx=0;exitDy=0;" parent="1" source="Nnj7Wq_yGs6EVmE-nwQ6-1" edge="1">
          <mxGeometry relative="1" as="geometry">
            <mxPoint x="215" y="155" as="targetPoint" />
          </mxGeometry>
        </mxCell>
      </root>
    </mxGraphModel>
  </diagram>
</mxfile>
